<svg xmlns="http://www.w3.org/2000/svg" width="512" height="512" viewBox="0 0 512 512" fill="none"><metadata><rdf:RDF xmlns:rdf="http://www.w3.org/1999/02/22-rdf-syntax-ns#" xmlns:dc="http://purl.org/dc/elements/1.1/"><rdf:Description><dc:creator>RealFaviconGenerator</dc:creator><dc:source>https://realfavicongenerator.net</dc:source></rdf:Description></rdf:RDF></metadata><g opacity="0.98">
<path d="M121.5 342.25H105.75C100.918 342.25 97 346.168 97 351V384.25C97 389.082 100.918 393 105.75 393H121.5C126.332 393 130.25 389.082 130.25 384.25V351C130.25 346.168 126.332 342.25 121.5 342.25Z" fill="url(#paint0_linear_7_3)"></path>
<path d="M167.875 316H152.125C147.293 316 143.375 319.917 143.375 324.75V384.25C143.375 389.082 147.293 393 152.125 393H167.875C172.707 393 176.625 389.082 176.625 384.25V324.75C176.625 319.917 172.707 316 167.875 316Z" fill="url(#paint1_linear_7_3)"></path>
<path d="M214.25 288H198.5C193.668 288 189.75 291.918 189.75 296.75V384.25C189.75 389.082 193.668 393 198.5 393H214.25C219.082 393 223 389.082 223 384.25V296.75C223 291.918 219.082 288 214.25 288Z" fill="url(#paint2_linear_7_3)"></path>
</g><path fill-rule="evenodd" clip-rule="evenodd" d="M300 62H406V136H360C334.6 136 314 156.6 314 182V188H399C407.8 188 415 195.2 415 204V229.5C415 256.5 407.8 264 399 264H318L314 318C314 392.6 253.6 453 179 453H140C68.2 453 10 394.8 10 323C10 251.2 68.2 193 140 193H226V154C226 103.2 267.2 62 318 62H300ZM140 264C107.4 264 81 290.4 81 323C81 355.6 107.4 382 140 382H176C203.6 382 226 359.6 226 332V264H140Z" fill="url(#paint3_linear_7_3)"></path><defs>
<linearGradient id="paint0_linear_7_3" x1="101.375" y1="380.75" x2="204.625" y2="275.75" gradientUnits="userSpaceOnUse">
<stop stop-color="#8B5CF6"></stop>
<stop offset="1" stop-color="#35C9DA"></stop>
</linearGradient>
<linearGradient id="paint1_linear_7_3" x1="101.375" y1="380.75" x2="204.625" y2="275.75" gradientUnits="userSpaceOnUse">
<stop stop-color="#8B5CF6"></stop>
<stop offset="1" stop-color="#35C9DA"></stop>
</linearGradient>
<linearGradient id="paint2_linear_7_3" x1="101.375" y1="380.75" x2="204.625" y2="275.75" gradientUnits="userSpaceOnUse">
<stop stop-color="#8B5CF6"></stop>
<stop offset="1" stop-color="#35C9DA"></stop>
</linearGradient>
<linearGradient id="paint3_linear_7_3" x1="77" y1="401" x2="378" y2="92" gradientUnits="userSpaceOnUse">
<stop stop-color="#27C7DC"></stop>
<stop offset="0.24" stop-color="#7C2DFF"></stop>
<stop offset="0.72" stop-color="#7C2DFF"></stop>
<stop offset="1" stop-color="#27C7DC"></stop>
</linearGradient>
</defs></svg>