<svg width="24" height="24" viewBox="0 0 24 24" fill="none" xmlns="http://www.w3.org/2000/svg">
  <path d="M23.5 12.27c0-.77-.07-1.5-.2-2.2H12v4.18h6.47a5.53 5.53 0 0 1-2.4 3.62v3h3.88c2.26-2.08 3.55-5.14 3.55-8.6Z" fill="#4285F4"/>
  <path d="M12 24c3.24 0 5.95-1.07 7.94-2.92l-3.88-3c-1.07.72-2.43 1.15-4.06 1.15-3.13 0-5.79-2.1-6.74-4.93H1.2v3.1A12 12 0 0 0 12 24Z" fill="#34A853"/>
  <path d="M5.26 14.3A7.2 7.2 0 0 1 4.88 12c0-.8.14-1.56.38-2.3V6.6H1.2A12 12 0 0 0 0 12c0 1.93.46 3.76 1.2 5.4l4.06-3.1Z" fill="#FBBC05"/>
  <path d="M12 4.77c1.77 0 3.36.61 4.6 1.81l3.44-3.44C17.94 1.2 15.23 0 12 0A12 12 0 0 0 1.2 6.6l4.06 3.1C6.21 6.87 8.87 4.77 12 4.77Z" fill="#EA4335"/>
</svg>
