<svg width="1180" height="420" viewBox="0 0 1180 420" fill="none" xmlns="http://www.w3.org/2000/svg">
<rect width="1180" height="420" fill="#F0F0F2"/>
<path d="M498.775 257.113C493.58 257.113 488.874 255.777 484.659 253.105C480.473 250.404 477.148 246.441 474.684 241.216C472.249 235.961 471.032 229.519 471.032 221.889C471.032 214.052 472.294 207.535 474.817 202.34C477.341 197.115 480.695 193.211 484.881 190.628C489.097 188.016 493.713 186.709 498.73 186.709C502.56 186.709 505.752 187.362 508.305 188.669C510.888 189.945 512.966 191.548 514.539 193.478C516.142 195.378 517.359 197.248 518.191 199.089H518.77V164.8H537.695V256H518.992V245.045H518.191C517.3 246.945 516.038 248.83 514.405 250.701C512.802 252.541 510.709 254.07 508.127 255.287C505.573 256.505 502.456 257.113 498.775 257.113ZM504.787 242.017C507.845 242.017 510.427 241.186 512.535 239.523C514.673 237.831 516.305 235.471 517.434 232.443C518.591 229.415 519.17 225.867 519.17 221.8C519.17 217.733 518.606 214.2 517.478 211.202C516.35 208.203 514.717 205.887 512.58 204.255C510.442 202.622 507.845 201.805 504.787 201.805C501.67 201.805 499.042 202.652 496.905 204.344C494.767 206.036 493.149 208.381 492.051 211.38C490.952 214.378 490.403 217.852 490.403 221.8C490.403 225.778 490.952 229.296 492.051 232.354C493.179 235.382 494.797 237.757 496.905 239.479C499.042 241.171 501.67 242.017 504.787 242.017ZM570.897 257.291C566.533 257.291 562.644 256.534 559.23 255.02C555.816 253.477 553.114 251.205 551.125 248.207C549.166 245.179 548.186 241.409 548.186 236.896C548.186 233.096 548.884 229.905 550.279 227.322C551.674 224.739 553.574 222.661 555.979 221.087C558.384 219.514 561.115 218.327 564.173 217.525C567.26 216.723 570.496 216.159 573.881 215.833C577.859 215.417 581.065 215.031 583.499 214.675C585.934 214.289 587.7 213.725 588.799 212.983C589.897 212.241 590.446 211.142 590.446 209.687V209.42C590.446 206.6 589.556 204.418 587.774 202.874C586.023 201.33 583.529 200.559 580.293 200.559C576.879 200.559 574.163 201.316 572.144 202.83C570.125 204.314 568.789 206.184 568.136 208.441L550.591 207.016C551.481 202.859 553.233 199.267 555.846 196.239C558.458 193.181 561.828 190.836 565.954 189.203C570.11 187.541 574.92 186.709 580.382 186.709C584.182 186.709 587.819 187.155 591.292 188.045C594.796 188.936 597.898 190.316 600.599 192.187C603.331 194.057 605.483 196.462 607.056 199.401C608.63 202.31 609.417 205.798 609.417 209.866V256H591.426V246.515H590.892C589.793 248.652 588.324 250.537 586.483 252.17C584.642 253.773 582.431 255.035 579.848 255.955C577.265 256.846 574.281 257.291 570.897 257.291ZM576.33 244.199C579.121 244.199 581.585 243.65 583.722 242.552C585.86 241.423 587.537 239.909 588.754 238.009C589.971 236.109 590.58 233.957 590.58 231.552V224.294C589.986 224.68 589.17 225.036 588.131 225.362C587.121 225.659 585.978 225.941 584.702 226.209C583.425 226.446 582.149 226.669 580.872 226.877C579.596 227.055 578.438 227.218 577.399 227.366C575.172 227.693 573.228 228.212 571.565 228.925C569.903 229.637 568.611 230.602 567.691 231.82C566.771 233.007 566.31 234.491 566.31 236.273C566.31 238.855 567.246 240.83 569.116 242.195C571.016 243.531 573.421 244.199 576.33 244.199ZM641.204 216.456V256H622.234V187.6H640.314V199.668H641.115C642.629 195.69 645.168 192.543 648.73 190.227C652.293 187.882 656.612 186.709 661.689 186.709C666.439 186.709 670.58 187.748 674.113 189.827C677.646 191.905 680.392 194.873 682.351 198.733C684.311 202.562 685.29 207.134 685.29 212.448V256H666.32V215.833C666.35 211.647 665.281 208.381 663.114 206.036C660.947 203.661 657.963 202.473 654.163 202.473C651.61 202.473 649.354 203.023 647.394 204.121C645.465 205.22 643.951 206.823 642.852 208.93C641.783 211.009 641.234 213.517 641.204 216.456Z" fill="#12111C"/>
<path d="M733.553 187.6V201.85H691.337V187.6H733.553ZM701.001 256V182.657C701.001 177.699 701.966 173.587 703.895 170.322C705.855 167.056 708.527 164.607 711.911 162.974C715.295 161.341 719.14 160.525 723.444 160.525C726.354 160.525 729.011 160.748 731.416 161.193C733.85 161.638 735.661 162.039 736.848 162.395L733.464 176.645C732.722 176.408 731.802 176.185 730.703 175.977C729.634 175.77 728.536 175.666 727.408 175.666C724.617 175.666 722.673 176.319 721.574 177.625C720.476 178.902 719.927 180.698 719.927 183.013V256H701.001Z" fill="#7C2DFF"/>
<path d="M751.782 281.65C749.377 281.65 747.121 281.457 745.013 281.071C742.935 280.715 741.213 280.255 739.848 279.691L744.123 265.53C746.349 266.213 748.353 266.584 750.134 266.643C751.945 266.702 753.504 266.287 754.81 265.396C756.146 264.505 757.23 262.991 758.061 260.854L759.174 257.959L734.638 187.6H754.588L768.748 237.831H769.461L783.755 187.6H803.839L777.254 263.392C775.977 267.073 774.241 270.28 772.044 273.011C769.877 275.772 767.13 277.895 763.805 279.379C760.48 280.893 756.473 281.65 751.782 281.65Z" fill="#12111C"/>
<g opacity="0.98">
<path d="M314.953 250.43H307.57C305.305 250.43 303.469 252.266 303.469 254.531V270.117C303.469 272.382 305.305 274.219 307.57 274.219H314.953C317.218 274.219 319.055 272.382 319.055 270.117V254.531C319.055 252.266 317.218 250.43 314.953 250.43Z" fill="url(#paint0_linear_9_2)"/>
<path d="M336.691 238.125H329.309C327.043 238.125 325.207 239.961 325.207 242.226V270.117C325.207 272.382 327.043 274.219 329.309 274.219H336.691C338.957 274.219 340.793 272.382 340.793 270.117V242.226C340.793 239.961 338.957 238.125 336.691 238.125Z" fill="url(#paint1_linear_9_2)"/>
<path d="M358.43 225H351.047C348.782 225 346.945 226.836 346.945 229.102V270.117C346.945 272.382 348.782 274.219 351.047 274.219H358.43C360.695 274.219 362.531 272.382 362.531 270.117V229.102C362.531 226.836 360.695 225 358.43 225Z" fill="url(#paint2_linear_9_2)"/>
</g>
<path fill-rule="evenodd" clip-rule="evenodd" d="M398.625 119.062H448.312V153.75H426.75C414.844 153.75 405.188 163.406 405.188 175.312V178.125H445.031C449.156 178.125 452.531 181.5 452.531 185.625V197.578C452.531 210.234 449.156 213.75 445.031 213.75H407.062L405.188 239.062C405.188 274.031 376.875 302.344 341.906 302.344H323.625C289.969 302.344 262.688 275.063 262.688 241.406C262.688 207.75 289.969 180.469 323.625 180.469H363.938V162.188C363.938 138.375 383.25 119.062 407.062 119.062H398.625ZM323.625 213.75C308.344 213.75 295.969 226.125 295.969 241.406C295.969 256.687 308.344 269.062 323.625 269.062H340.5C353.438 269.062 363.938 258.563 363.938 245.625V213.75H323.625Z" fill="url(#paint3_linear_9_2)"/>
<defs>
<linearGradient id="paint0_linear_9_2" x1="305.52" y1="268.477" x2="353.918" y2="219.258" gradientUnits="userSpaceOnUse">
<stop stop-color="#8B5CF6"/>
<stop offset="1" stop-color="#35C9DA"/>
</linearGradient>
<linearGradient id="paint1_linear_9_2" x1="305.52" y1="268.476" x2="353.918" y2="219.258" gradientUnits="userSpaceOnUse">
<stop stop-color="#8B5CF6"/>
<stop offset="1" stop-color="#35C9DA"/>
</linearGradient>
<linearGradient id="paint2_linear_9_2" x1="305.52" y1="268.477" x2="353.918" y2="219.258" gradientUnits="userSpaceOnUse">
<stop stop-color="#8B5CF6"/>
<stop offset="1" stop-color="#35C9DA"/>
</linearGradient>
<linearGradient id="paint3_linear_9_2" x1="294.094" y1="277.969" x2="435.188" y2="133.125" gradientUnits="userSpaceOnUse">
<stop stop-color="#27C7DC"/>
<stop offset="0.24" stop-color="#7C2DFF"/>
<stop offset="0.72" stop-color="#7C2DFF"/>
<stop offset="1" stop-color="#27C7DC"/>
</linearGradient>
</defs>
</svg>
