<svg width="616" height="320" viewBox="0 0 616 320" fill="none" xmlns="http://www.w3.org/2000/svg">
<path d="M243.775 203.113C238.58 203.113 233.874 201.777 229.659 199.105C225.473 196.404 222.148 192.441 219.684 187.216C217.249 181.961 216.032 175.519 216.032 167.889C216.032 160.052 217.294 153.535 219.817 148.34C222.341 143.115 225.695 139.211 229.881 136.628C234.097 134.016 238.713 132.709 243.73 132.709C247.56 132.709 250.752 133.362 253.305 134.669C255.888 135.945 257.966 137.548 259.539 139.478C261.142 141.378 262.359 143.248 263.191 145.089H263.77V110.8H282.695V202H263.992V191.045H263.191C262.3 192.945 261.038 194.83 259.405 196.701C257.802 198.541 255.709 200.07 253.127 201.287C250.573 202.505 247.456 203.113 243.775 203.113ZM249.787 188.017C252.845 188.017 255.427 187.186 257.535 185.523C259.673 183.831 261.305 181.471 262.434 178.443C263.591 175.415 264.17 171.867 264.17 167.8C264.17 163.733 263.606 160.2 262.478 157.202C261.35 154.203 259.717 151.887 257.58 150.255C255.442 148.622 252.845 147.805 249.787 147.805C246.67 147.805 244.042 148.652 241.905 150.344C239.767 152.036 238.149 154.381 237.051 157.38C235.952 160.378 235.403 163.852 235.403 167.8C235.403 171.778 235.952 175.296 237.051 178.354C238.179 181.382 239.797 183.757 241.905 185.479C244.042 187.171 246.67 188.017 249.787 188.017ZM315.897 203.291C311.533 203.291 307.644 202.534 304.23 201.02C300.816 199.477 298.114 197.205 296.125 194.207C294.166 191.179 293.186 187.409 293.186 182.896C293.186 179.096 293.884 175.905 295.279 173.322C296.674 170.739 298.574 168.661 300.979 167.087C303.384 165.514 306.115 164.327 309.173 163.525C312.26 162.723 315.496 162.159 318.881 161.833C322.859 161.417 326.065 161.031 328.499 160.675C330.934 160.289 332.7 159.725 333.799 158.983C334.897 158.241 335.446 157.142 335.446 155.687V155.42C335.446 152.6 334.556 150.418 332.774 148.874C331.023 147.33 328.529 146.559 325.293 146.559C321.879 146.559 319.163 147.316 317.144 148.83C315.125 150.314 313.789 152.184 313.136 154.441L295.591 153.016C296.481 148.859 298.233 145.267 300.846 142.239C303.458 139.181 306.828 136.836 310.954 135.203C315.11 133.541 319.92 132.709 325.382 132.709C329.182 132.709 332.819 133.155 336.292 134.045C339.796 134.936 342.898 136.316 345.599 138.187C348.331 140.057 350.483 142.462 352.056 145.401C353.63 148.31 354.417 151.798 354.417 155.866V202H336.426V192.515H335.892C334.793 194.652 333.324 196.537 331.483 198.17C329.642 199.773 327.431 201.035 324.848 201.955C322.265 202.846 319.281 203.291 315.897 203.291ZM321.33 190.199C324.121 190.199 326.585 189.65 328.722 188.552C330.86 187.423 332.537 185.909 333.754 184.009C334.971 182.109 335.58 179.957 335.58 177.552V170.294C334.986 170.68 334.17 171.036 333.131 171.362C332.121 171.659 330.978 171.941 329.702 172.209C328.425 172.446 327.149 172.669 325.872 172.877C324.596 173.055 323.438 173.218 322.399 173.366C320.172 173.693 318.228 174.212 316.565 174.925C314.903 175.637 313.611 176.602 312.691 177.82C311.771 179.007 311.31 180.491 311.31 182.273C311.31 184.855 312.246 186.83 314.116 188.195C316.016 189.531 318.421 190.199 321.33 190.199ZM386.204 162.456V202H367.234V133.6H385.314V145.668H386.115C387.629 141.69 390.168 138.543 393.73 136.227C397.293 133.882 401.612 132.709 406.689 132.709C411.439 132.709 415.58 133.748 419.113 135.827C422.646 137.905 425.392 140.873 427.351 144.733C429.311 148.562 430.29 153.134 430.29 158.448V202H411.32V161.833C411.35 157.647 410.281 154.381 408.114 152.036C405.947 149.661 402.963 148.473 399.163 148.473C396.61 148.473 394.354 149.023 392.394 150.121C390.465 151.22 388.951 152.823 387.852 154.93C386.783 157.009 386.234 159.517 386.204 162.456Z" fill="#12111C"/>
<path d="M478.553 133.6V147.85H436.337V133.6H478.553ZM446.001 202V128.657C446.001 123.699 446.966 119.587 448.895 116.322C450.855 113.056 453.527 110.607 456.911 108.974C460.295 107.341 464.14 106.525 468.444 106.525C471.354 106.525 474.011 106.748 476.416 107.193C478.85 107.638 480.661 108.039 481.848 108.395L478.464 122.645C477.722 122.408 476.802 122.185 475.703 121.977C474.634 121.77 473.536 121.666 472.408 121.666C469.617 121.666 467.673 122.319 466.574 123.625C465.476 124.902 464.927 126.698 464.927 129.013V202H446.001Z" fill="#7C2DFF"/>
<path d="M496.782 227.65C494.377 227.65 492.121 227.457 490.013 227.071C487.935 226.715 486.213 226.255 484.848 225.691L489.123 211.53C491.349 212.213 493.353 212.584 495.134 212.643C496.945 212.702 498.504 212.287 499.81 211.396C501.146 210.505 502.23 208.991 503.061 206.854L504.174 203.959L479.638 133.6H499.588L513.748 183.831H514.461L528.755 133.6H548.839L522.254 209.392C520.977 213.073 519.241 216.28 517.044 219.011C514.877 221.772 512.13 223.895 508.805 225.379C505.48 226.893 501.473 227.65 496.782 227.65Z" fill="#12111C"/>
<g opacity="0.98">
<path d="M56.9531 200.43H49.5703C47.3051 200.43 45.4688 202.266 45.4688 204.531V220.117C45.4688 222.382 47.3051 224.219 49.5703 224.219H56.9531C59.2184 224.219 61.0547 222.382 61.0547 220.117V204.531C61.0547 202.266 59.2184 200.43 56.9531 200.43Z" fill="url(#paint0_linear_7_9)"/>
<path d="M78.6914 188.125H71.3086C69.0434 188.125 67.207 189.961 67.207 192.226V220.117C67.207 222.382 69.0434 224.219 71.3086 224.219H78.6914C80.9566 224.219 82.793 222.382 82.793 220.117V192.226C82.793 189.961 80.9566 188.125 78.6914 188.125Z" fill="url(#paint1_linear_7_9)"/>
<path d="M100.43 175H93.0469C90.7816 175 88.9453 176.836 88.9453 179.102V220.117C88.9453 222.382 90.7816 224.219 93.0469 224.219H100.43C102.695 224.219 104.531 222.382 104.531 220.117V179.102C104.531 176.836 102.695 175 100.43 175Z" fill="url(#paint2_linear_7_9)"/>
</g>
<path fill-rule="evenodd" clip-rule="evenodd" d="M140.625 69.0625H190.312V103.75H168.75C156.844 103.75 147.188 113.406 147.188 125.312V128.125H187.031C191.156 128.125 194.531 131.5 194.531 135.625V147.578C194.531 160.234 191.156 163.75 187.031 163.75H149.062L147.188 189.062C147.188 224.031 118.875 252.344 83.9062 252.344H65.625C31.9687 252.344 4.6875 225.062 4.6875 191.406C4.6875 157.75 31.9687 130.469 65.625 130.469H105.938V112.188C105.938 88.375 125.25 69.0625 149.062 69.0625H140.625ZM65.625 163.75C50.3438 163.75 37.9688 176.125 37.9688 191.406C37.9688 206.688 50.3438 219.062 65.625 219.062H82.5C95.4375 219.062 105.938 208.562 105.938 195.625V163.75H65.625Z" fill="url(#paint3_linear_7_9)"/>
<defs>
<linearGradient id="paint0_linear_7_9" x1="47.5195" y1="218.477" x2="95.9179" y2="169.258" gradientUnits="userSpaceOnUse">
<stop stop-color="#8B5CF6"/>
<stop offset="1" stop-color="#35C9DA"/>
</linearGradient>
<linearGradient id="paint1_linear_7_9" x1="47.5195" y1="218.476" x2="95.9179" y2="169.258" gradientUnits="userSpaceOnUse">
<stop stop-color="#8B5CF6"/>
<stop offset="1" stop-color="#35C9DA"/>
</linearGradient>
<linearGradient id="paint2_linear_7_9" x1="47.5195" y1="218.477" x2="95.9179" y2="169.258" gradientUnits="userSpaceOnUse">
<stop stop-color="#8B5CF6"/>
<stop offset="1" stop-color="#35C9DA"/>
</linearGradient>
<linearGradient id="paint3_linear_7_9" x1="36.0938" y1="227.969" x2="177.188" y2="83.125" gradientUnits="userSpaceOnUse">
<stop stop-color="#27C7DC"/>
<stop offset="0.24" stop-color="#7C2DFF"/>
<stop offset="0.72" stop-color="#7C2DFF"/>
<stop offset="1" stop-color="#27C7DC"/>
</linearGradient>
</defs>
</svg>
