<svg width="616" height="320" viewBox="0 0 616 320" fill="none" xmlns="http://www.w3.org/2000/svg">
<path d="M292.775 203.113C287.58 203.113 282.874 201.777 278.659 199.105C274.473 196.404 271.148 192.441 268.684 187.216C266.249 181.961 265.032 175.519 265.032 167.889C265.032 160.052 266.294 153.535 268.817 148.34C271.341 143.115 274.695 139.211 278.881 136.628C283.097 134.016 287.713 132.709 292.73 132.709C296.56 132.709 299.752 133.362 302.305 134.669C304.888 135.945 306.966 137.548 308.539 139.478C310.142 141.378 311.359 143.248 312.191 145.089H312.77V110.8H331.695V202H312.992V191.045H312.191C311.3 192.945 310.038 194.83 308.405 196.701C306.802 198.541 304.709 200.07 302.127 201.287C299.573 202.505 296.456 203.113 292.775 203.113ZM298.787 188.017C301.845 188.017 304.427 187.186 306.535 185.523C308.673 183.831 310.305 181.471 311.434 178.443C312.591 175.415 313.17 171.867 313.17 167.8C313.17 163.733 312.606 160.2 311.478 157.202C310.35 154.203 308.717 151.887 306.58 150.255C304.442 148.622 301.845 147.805 298.787 147.805C295.67 147.805 293.042 148.652 290.905 150.344C288.767 152.036 287.149 154.381 286.051 157.38C284.952 160.378 284.403 163.852 284.403 167.8C284.403 171.778 284.952 175.296 286.051 178.354C287.179 181.382 288.797 183.757 290.905 185.479C293.042 187.171 295.67 188.017 298.787 188.017ZM364.897 203.291C360.533 203.291 356.644 202.534 353.23 201.02C349.816 199.477 347.114 197.205 345.125 194.207C343.166 191.179 342.186 187.409 342.186 182.896C342.186 179.096 342.884 175.905 344.279 173.322C345.674 170.739 347.574 168.661 349.979 167.087C352.384 165.514 355.115 164.327 358.173 163.525C361.26 162.723 364.496 162.159 367.881 161.833C371.859 161.417 375.065 161.031 377.499 160.675C379.934 160.289 381.7 159.725 382.799 158.983C383.897 158.241 384.446 157.142 384.446 155.687V155.42C384.446 152.6 383.556 150.418 381.774 148.874C380.023 147.33 377.529 146.559 374.293 146.559C370.879 146.559 368.163 147.316 366.144 148.83C364.125 150.314 362.789 152.184 362.136 154.441L344.591 153.016C345.481 148.859 347.233 145.267 349.846 142.239C352.458 139.181 355.828 136.836 359.954 135.203C364.11 133.541 368.92 132.709 374.382 132.709C378.182 132.709 381.819 133.155 385.292 134.045C388.796 134.936 391.898 136.316 394.599 138.187C397.331 140.057 399.483 142.462 401.056 145.401C402.63 148.31 403.417 151.798 403.417 155.866V202H385.426V192.515H384.892C383.793 194.652 382.324 196.537 380.483 198.17C378.642 199.773 376.431 201.035 373.848 201.955C371.265 202.846 368.281 203.291 364.897 203.291ZM370.33 190.199C373.121 190.199 375.585 189.65 377.722 188.552C379.86 187.423 381.537 185.909 382.754 184.009C383.971 182.109 384.58 179.957 384.58 177.552V170.294C383.986 170.68 383.17 171.036 382.131 171.362C381.121 171.659 379.978 171.941 378.702 172.209C377.425 172.446 376.149 172.669 374.872 172.877C373.596 173.055 372.438 173.218 371.399 173.366C369.172 173.693 367.228 174.212 365.565 174.925C363.903 175.637 362.611 176.602 361.691 177.82C360.771 179.007 360.31 180.491 360.31 182.273C360.31 184.855 361.246 186.83 363.116 188.195C365.016 189.531 367.421 190.199 370.33 190.199ZM435.204 162.456V202H416.234V133.6H434.314V145.668H435.115C436.629 141.69 439.168 138.543 442.73 136.227C446.293 133.882 450.612 132.709 455.689 132.709C460.439 132.709 464.58 133.748 468.113 135.827C471.646 137.905 474.392 140.873 476.351 144.733C478.311 148.562 479.29 153.134 479.29 158.448V202H460.32V161.833C460.35 157.647 459.281 154.381 457.114 152.036C454.947 149.661 451.963 148.473 448.163 148.473C445.61 148.473 443.354 149.023 441.394 150.121C439.465 151.22 437.951 152.823 436.852 154.93C435.783 157.009 435.234 159.517 435.204 162.456Z" fill="white"/>
<path d="M527.553 133.6V147.85H485.337V133.6H527.553ZM495.001 202V128.657C495.001 123.699 495.966 119.587 497.895 116.322C499.855 113.056 502.527 110.607 505.911 108.974C509.295 107.341 513.14 106.525 517.444 106.525C520.354 106.525 523.011 106.748 525.416 107.193C527.85 107.638 529.661 108.039 530.848 108.395L527.464 122.645C526.722 122.408 525.802 122.185 524.703 121.977C523.634 121.77 522.536 121.666 521.408 121.666C518.617 121.666 516.673 122.319 515.574 123.625C514.476 124.902 513.927 126.698 513.927 129.013V202H495.001Z" fill="#7C2DFF"/>
<path d="M545.782 227.65C543.377 227.65 541.121 227.457 539.013 227.071C536.935 226.715 535.213 226.255 533.848 225.691L538.123 211.53C540.349 212.213 542.353 212.584 544.134 212.643C545.945 212.702 547.504 212.287 548.81 211.396C550.146 210.505 551.23 208.991 552.061 206.854L553.174 203.959L528.638 133.6H548.588L562.748 183.831H563.461L577.755 133.6H597.839L571.254 209.392C569.977 213.073 568.241 216.28 566.044 219.011C563.877 221.772 561.13 223.895 557.805 225.379C554.48 226.893 550.473 227.65 545.782 227.65Z" fill="white"/>
<g opacity="0.98">
<path d="M104.953 212.43H97.5703C95.3051 212.43 93.4688 214.266 93.4688 216.531V232.117C93.4688 234.382 95.3051 236.219 97.5703 236.219H104.953C107.218 236.219 109.055 234.382 109.055 232.117V216.531C109.055 214.266 107.218 212.43 104.953 212.43Z" fill="url(#paint0_linear_7_20)"/>
<path d="M126.691 200.125H119.309C117.043 200.125 115.207 201.961 115.207 204.226V232.117C115.207 234.382 117.043 236.219 119.309 236.219H126.691C128.957 236.219 130.793 234.382 130.793 232.117V204.226C130.793 201.961 128.957 200.125 126.691 200.125Z" fill="url(#paint1_linear_7_20)"/>
<path d="M148.43 187H141.047C138.782 187 136.945 188.836 136.945 191.102V232.117C136.945 234.382 138.782 236.219 141.047 236.219H148.43C150.695 236.219 152.531 234.382 152.531 232.117V191.102C152.531 188.836 150.695 187 148.43 187Z" fill="url(#paint2_linear_7_20)"/>
</g>
<path fill-rule="evenodd" clip-rule="evenodd" d="M188.625 81.0625H238.312V115.75H216.75C204.844 115.75 195.188 125.406 195.188 137.312V140.125H235.031C239.156 140.125 242.531 143.5 242.531 147.625V159.578C242.531 172.234 239.156 175.75 235.031 175.75H197.062L195.188 201.062C195.188 236.031 166.875 264.344 131.906 264.344H113.625C79.9687 264.344 52.6875 237.062 52.6875 203.406C52.6875 169.75 79.9687 142.469 113.625 142.469H153.938V124.188C153.938 100.375 173.25 81.0625 197.062 81.0625H188.625ZM113.625 175.75C98.3438 175.75 85.9688 188.125 85.9688 203.406C85.9688 218.688 98.3438 231.062 113.625 231.062H130.5C143.438 231.062 153.938 220.562 153.938 207.625V175.75H113.625Z" fill="url(#paint3_linear_7_20)"/>
<defs>
<linearGradient id="paint0_linear_7_20" x1="95.5195" y1="230.477" x2="143.918" y2="181.258" gradientUnits="userSpaceOnUse">
<stop stop-color="#8B5CF6"/>
<stop offset="1" stop-color="#35C9DA"/>
</linearGradient>
<linearGradient id="paint1_linear_7_20" x1="95.5195" y1="230.476" x2="143.918" y2="181.258" gradientUnits="userSpaceOnUse">
<stop stop-color="#8B5CF6"/>
<stop offset="1" stop-color="#35C9DA"/>
</linearGradient>
<linearGradient id="paint2_linear_7_20" x1="95.5195" y1="230.477" x2="143.918" y2="181.258" gradientUnits="userSpaceOnUse">
<stop stop-color="#8B5CF6"/>
<stop offset="1" stop-color="#35C9DA"/>
</linearGradient>
<linearGradient id="paint3_linear_7_20" x1="84.0938" y1="239.969" x2="225.188" y2="95.125" gradientUnits="userSpaceOnUse">
<stop stop-color="#27C7DC"/>
<stop offset="0.24" stop-color="#7C2DFF"/>
<stop offset="0.72" stop-color="#7C2DFF"/>
<stop offset="1" stop-color="#27C7DC"/>
</linearGradient>
</defs>
</svg>
